<svg width="32" height="32" viewBox="0 0 32 32" fill="none" xmlns="http://www.w3.org/2000/svg">
<path d="M31.8933 6.50829L15.3784 10.8837C14.9877 9.78096 14.384 7.25531 13.9578 6.15257C13.7092 5.51226 13.3895 4.90753 12.9988 4.33837C12.4306 3.5202 11.6137 3.09333 10.5838 3.09333C8.20419 3.16448 7.52938 5.01425 7.49387 5.12096H0L7.88454 6.43715C8.4528 7.36203 9.37621 8.46478 9.41173 9.28294C9.44725 10.03 9.09209 10.6703 8.84347 11.3106C8.06212 13.4449 8.06212 15.5793 8.91451 17.7136C9.76689 19.848 11.152 21.2353 13.354 22.4448C15.9822 23.8677 19.6048 26.3222 20.1376 30.6976C20.2441 30.5909 21.6292 25.1838 19.1431 21.9823C18.1131 20.6306 17.1187 18.1405 17.4383 17.4646C20.031 18.1405 28.6259 13.9074 31.8933 6.50829Z" fill="#45C578"/>
</svg>
