<svg width="16" height="16" viewBox="0 0 16 16" fill="none" xmlns="http://www.w3.org/2000/svg">
<path d="M9.33312 5.33314C8.96499 5.33314 8.66686 5.03501 8.66686 4.66688C8.66686 4.29875 8.96499 4 9.33312 4H13.3331C13.51 4 13.68 4.07 13.805 4.19501C13.93 4.32002 14 4.49002 14 4.66688V8.66688C14 9.03501 13.7012 9.33314 13.3331 9.33314C12.965 9.33314 12.6669 9.03501 12.6669 8.66688V6.27632L6.47118 12.4714C6.21118 12.732 5.78869 12.732 5.52869 12.4714C5.26806 12.2114 5.26806 11.7889 5.52869 11.5289L11.7237 5.33318L9.33312 5.33314ZM2 6.66688C2 5.93 2.59688 5.33314 3.33312 5.33314H6.66688C7.03501 5.33314 7.33314 5.63189 7.33314 6.00002C7.33314 6.36814 7.03501 6.6669 6.66688 6.6669H3.33312V14.6669H11.3331V11.3331C11.3331 10.965 11.6319 10.6669 12 10.6669C12.3681 10.6669 12.6669 10.965 12.6669 11.3331V14.6669C12.6669 15.4032 12.07 16 11.3331 16H3.33314C2.59688 16 2.00002 15.4031 2.00002 14.6669L2 6.66688Z" fill="#FFEFB7"/>
</svg>
