<svg width="24" height="24" viewBox="0 0 24 24" fill="none" xmlns="http://www.w3.org/2000/svg">
<g clip-path="url(#clip0_131_392)">
<path d="M13.9997 7.9997C13.4475 7.9997 13.0003 7.55251 13.0003 7.00032C13.0003 6.44813 13.4475 6 13.9997 6H19.9997C20.265 6 20.52 6.105 20.7075 6.29251C20.895 6.48002 21 6.73502 21 7.00032V13.0003C21 13.5525 20.5519 13.9997 19.9997 13.9997C19.4475 13.9997 19.0003 13.5525 19.0003 13.0003V9.41448L9.70678 18.707C9.31678 19.098 8.68303 19.098 8.29303 18.707C7.9021 18.317 7.9021 17.6833 8.29303 17.2933L17.5856 7.99978L13.9997 7.9997ZM3 10.0003C3 8.895 3.89532 7.9997 4.99968 7.9997H10.0003C10.5525 7.9997 10.9997 8.44783 10.9997 9.00002C10.9997 9.55222 10.5525 10.0003 10.0003 10.0003H4.99968V22.0003H16.9997V16.9997C16.9997 16.4475 17.4478 16.0003 18 16.0003C18.5522 16.0003 19.0003 16.4475 19.0003 16.9997V22.0003C19.0003 23.1047 18.105 24 16.9997 24H4.9997C3.89532 24 3.00002 23.1047 3.00002 22.0003L3 10.0003Z" fill="#45C578"/>
</g>
<defs>
<clipPath id="clip0_131_392">
<rect width="24" height="24" fill="white"/>
</clipPath>
</defs>
</svg>
